<svg width="46" height="46" viewBox="0 0 46 46" fill="none" xmlns="http://www.w3.org/2000/svg">
<path fill-rule="evenodd" clip-rule="evenodd" d="M12.3464 3.83301H33.6597C38.5149 3.99964 42.3204 8.06232 42.1697 12.918V25.4147C42.2419 27.7598 41.3764 30.0369 39.7648 31.742C38.1532 33.4471 35.9284 34.4396 33.583 34.4997H15.3364C14.0736 34.5258 12.8762 35.0657 12.0205 35.9947L7.47802 40.8438C7.09318 41.2636 6.55242 41.5062 5.98302 41.5147C5.39495 41.4997 4.83727 41.2503 4.43409 40.8219C4.03092 40.3935 3.81571 39.8217 3.83636 39.2338V12.918C3.68565 8.06232 7.4912 3.99964 12.3464 3.83301ZM33.6597 31.6247C36.9275 31.4593 39.4466 28.6831 39.2947 25.4147V12.918C39.4466 9.64956 36.9275 6.87335 33.6597 6.70801H12.3464C9.07855 6.87335 6.55941 9.64956 6.71135 12.918V37.4513L9.83552 34.0397C11.2642 32.5199 13.2506 31.6478 15.3364 31.6247H33.6597Z" fill="white" fill-opacity="0.7"/>
<path d="M15.8155 16.7705H25.3989C26.1928 16.7705 26.8364 16.1269 26.8364 15.333C26.8364 14.5391 26.1928 13.8955 25.3989 13.8955H15.8155C15.0216 13.8955 14.378 14.5391 14.378 15.333C14.378 16.1269 15.0216 16.7705 15.8155 16.7705Z" fill="white" fill-opacity="0.7"/>
<path d="M30.1905 21.5622H15.8155C15.0216 21.5622 14.378 22.2058 14.378 22.9997C14.378 23.7936 15.0216 24.4372 15.8155 24.4372H30.1905C30.9844 24.4372 31.628 23.7936 31.628 22.9997C31.628 22.2058 30.9844 21.5622 30.1905 21.5622Z" fill="white" fill-opacity="0.7"/>
</svg>
