<svg width="46" height="46" viewBox="0 0 46 46" fill="none" xmlns="http://www.w3.org/2000/svg">
<path fill-rule="evenodd" clip-rule="evenodd" d="M27.7029 7.28946L37.2903 14.371C39.138 15.7082 40.2374 17.8463 40.25 20.1271V32.9466C40.1312 37.0572 36.7169 40.3013 32.6055 40.2097H13.4126C9.29429 40.3114 5.86873 37.0645 5.75 32.9466V20.1271C5.76264 17.8463 6.86202 15.7082 8.70974 14.371L18.2971 7.28946C21.0964 5.23685 24.9036 5.23685 27.7029 7.28946ZM14.8289 32.5289H31.1711C31.9232 32.5289 32.5329 31.9192 32.5329 31.1671C32.5329 30.415 31.9232 29.8053 31.1711 29.8053H14.8289C14.0768 29.8053 13.4671 30.415 13.4671 31.1671C13.4671 31.9192 14.0768 32.5289 14.8289 32.5289Z" fill="white"/>
</svg>
