<svg width="46" height="46" viewBox="0 0 46 46" fill="none" xmlns="http://www.w3.org/2000/svg">
<path d="M31.8918 42.1664H14.1052C12.1678 42.0959 10.363 41.164 9.18384 39.6251C8.00467 38.0863 7.57426 36.1013 8.01018 34.2122L8.47018 32.0272C8.99925 29.0694 11.5419 26.8957 14.546 26.833H31.451C34.4552 26.8957 36.9978 29.0694 37.5269 32.0272L37.9869 34.2122C38.4228 36.1013 37.9924 38.0863 36.8132 39.6251C35.634 41.164 33.8293 42.0959 31.8918 42.1664Z" fill="white" fill-opacity="0.7"/>
<path d="M23.9568 22.9997H22.0402C17.806 22.9997 14.3735 19.5672 14.3735 15.333V10.273C14.3684 8.56348 15.0453 6.92247 16.2541 5.71363C17.4629 4.50478 19.104 3.82793 20.8135 3.83304H25.1835C26.8931 3.82793 28.5341 4.50478 29.7429 5.71363C30.9518 6.92247 31.6286 8.56348 31.6235 10.273V15.333C31.6235 17.3664 30.8158 19.3164 29.378 20.7542C27.9402 22.192 25.9902 22.9997 23.9568 22.9997Z" fill="white" fill-opacity="0.7"/>
</svg>
