<svg width="46" height="46" viewBox="0 0 46 46" fill="none" xmlns="http://www.w3.org/2000/svg">
<path d="M32.237 29.6792C31.5377 29.3278 30.6858 29.6004 30.3204 30.2926C29.9827 30.9977 30.2619 31.8436 30.9529 32.2092C32.6395 33.0717 33.5979 34.1259 33.5979 35.1417C33.5979 37.3076 29.0745 39.7226 23.0179 39.7226C16.9612 39.7226 12.4187 37.3267 12.4187 35.2184C12.4187 34.2217 13.377 33.1484 15.0637 32.2859C15.5695 32.0831 15.9171 31.6117 15.9615 31.0685C16.0058 30.5254 15.7391 30.0039 15.2729 29.7218C14.8066 29.4396 14.2209 29.4454 13.7604 29.7367C11.4333 30.6138 9.81103 32.7421 9.58203 35.2184C9.58203 39.4734 15.332 42.6742 22.9987 42.6742C30.6654 42.6742 36.4154 39.4734 36.4154 35.2184C36.2075 32.7207 34.5816 30.5652 32.237 29.6792Z" fill="white" fill-opacity="0.7"/>
<path fill-rule="evenodd" clip-rule="evenodd" d="M21.5612 36.0617V27.7817C15.2494 27.0213 10.6219 21.4765 11.0028 15.1305C11.3837 8.78445 16.6413 3.83301 22.9987 3.83301C29.3561 3.83301 34.6137 8.78445 34.9946 15.1305C35.3755 21.4765 30.748 27.0213 24.4362 27.7817V36.0617C24.4362 36.8556 23.7926 37.4992 22.9987 37.4992C22.2048 37.4992 21.5612 36.8556 21.5612 36.0617ZM31.4785 12.3452C30.0555 8.91996 26.7077 6.69064 22.9987 6.69839C17.9538 6.70893 13.8667 10.796 13.8562 15.8409C13.8485 19.5499 16.0778 22.8977 19.503 24.3206C22.9282 25.7436 26.8734 24.961 29.4961 22.3383C32.1188 19.7156 32.9014 15.7704 31.4785 12.3452Z" fill="white" fill-opacity="0.7"/>
<path d="M18.3795 17.9684C19.1734 17.9684 19.817 17.3248 19.817 16.5309C19.817 14.3291 21.6019 12.5442 23.8037 12.5442C24.5976 12.5442 25.2412 11.9006 25.2412 11.1067C25.2412 10.3128 24.5976 9.66922 23.8037 9.66922C21.9788 9.6743 20.2306 10.4041 18.9438 11.6981C17.657 12.9921 16.9369 14.7443 16.942 16.5692C16.9471 16.9454 17.1014 17.3042 17.371 17.5666C17.6406 17.829 18.0034 17.9735 18.3795 17.9684Z" fill="white" fill-opacity="0.7"/>
</svg>
