<svg width="46" height="46" viewBox="0 0 46 46" fill="none" xmlns="http://www.w3.org/2000/svg">
<path d="M23.9775 21.9842C23.8446 21.8542 23.6886 21.7502 23.5175 21.6775C23.1693 21.5249 22.7732 21.5249 22.425 21.6775C22.248 21.7497 22.0856 21.8536 21.9458 21.9842L18.1125 25.8175C17.552 26.3787 17.552 27.2879 18.1125 27.8492C18.3795 28.1231 18.7458 28.2777 19.1283 28.2777C19.5109 28.2777 19.8772 28.1231 20.1442 27.8492L21.4858 26.5075V31.7783C21.4858 32.5722 22.1294 33.2158 22.9233 33.2158C23.7172 33.2158 24.3608 32.5722 24.3608 31.7783V26.4692L25.7217 27.8108C25.9885 28.0842 26.3555 28.2365 26.7375 28.2325C27.119 28.2343 27.4852 28.0823 27.7533 27.8108C28.3139 27.2496 28.3139 26.3404 27.7533 25.7792L23.9775 21.9842Z" fill="white" fill-opacity="0.7"/>
<path fill-rule="evenodd" clip-rule="evenodd" d="M30.1875 4.3125H15.8125C9.46123 4.3125 4.3125 9.46123 4.3125 15.8125V30.1875C4.3125 36.5388 9.46123 41.6875 15.8125 41.6875H30.1875C33.2375 41.6875 36.1626 40.4759 38.3192 38.3192C40.4759 36.1626 41.6875 33.2375 41.6875 30.1875V15.8125C41.6875 9.46123 36.5388 4.3125 30.1875 4.3125ZM19.1667 7.1875H26.8333C26.7723 7.34001 26.7398 7.50242 26.7375 7.66667V11.5C26.7375 12.8232 25.6648 13.8958 24.3417 13.8958H21.7158C20.3927 13.8958 19.32 12.8232 19.32 11.5V7.66667C19.2996 7.4987 19.2475 7.33612 19.1667 7.1875ZM30.13 38.8125C34.8891 38.802 38.7445 34.9466 38.755 30.1875L38.8125 15.8125C38.802 11.0534 34.9466 7.19804 30.1875 7.1875H29.4592C29.5114 7.34248 29.5436 7.50351 29.555 7.66667V11.5C29.555 14.411 27.1952 16.7708 24.2842 16.7708H21.7158C18.8048 16.7708 16.445 14.411 16.445 11.5V7.66667C16.4564 7.50351 16.4886 7.34248 16.5408 7.1875H15.8125C11.0534 7.19804 7.19804 11.0534 7.1875 15.8125V30.1875C7.19804 34.9466 11.0534 38.802 15.8125 38.8125H30.13Z" fill="white" fill-opacity="0.7"/>
</svg>
